<?xml version="1.0" encoding="UTF-8" standalone="no"?><!-- Generator: Gravit.io --><svg xmlns="http://www.w3.org/2000/svg" xmlns:xlink="http://www.w3.org/1999/xlink" style="isolation:isolate" viewBox="0 0 190 162" width="190pt" height="162pt"><defs><clipPath id="_clipPath_3K5euisLx0qdbC80SHyOzvHivNCNaVM3"><rect width="190" height="162"/></clipPath></defs><g clip-path="url(#_clipPath_3K5euisLx0qdbC80SHyOzvHivNCNaVM3)"><path d=" M 49.316 66.943 C 49.316 64.032 46.956 61.672 44.044 61.672 L 29.988 61.672 C 27.076 61.672 24.716 64.032 24.716 66.943 C 24.716 69.855 27.076 72.215 29.988 72.215 L 44.044 72.215 C 46.956 72.215 49.316 69.855 49.316 66.943 Z  M 48.235 87.857 L 36.063 94.885 C 34.395 95.808 33.355 97.56 33.344 99.466 C 33.333 101.372 34.351 103.136 36.008 104.079 C 37.664 105.022 39.701 104.997 41.334 104.014 L 53.506 96.985 C 55.968 95.503 56.789 92.322 55.352 89.833 C 53.915 87.344 50.749 86.466 48.235 87.857 L 48.235 87.857 Z  M 53.506 36.901 L 41.334 29.873 C 39.701 28.89 37.664 28.865 36.008 29.808 C 34.351 30.751 33.333 32.514 33.344 34.421 C 33.355 36.327 34.395 38.078 36.063 39.001 L 48.235 46.029 C 49.868 47.013 51.905 47.038 53.561 46.095 C 55.218 45.152 56.236 43.388 56.225 41.482 C 56.214 39.576 55.174 37.824 53.506 36.901 L 53.506 36.901 Z  M 139.134 46.737 C 140.059 46.738 140.969 46.494 141.769 46.029 L 153.942 39.001 C 156.404 37.519 157.225 34.338 155.788 31.849 C 154.35 29.36 151.185 28.482 148.67 29.873 L 136.498 36.901 C 134.433 38.095 133.427 40.526 134.044 42.83 C 134.661 45.134 136.749 46.736 139.134 46.737 Z  M 160.012 61.672 L 145.956 61.672 C 143.044 61.672 140.684 64.032 140.684 66.943 C 140.684 69.855 143.044 72.215 145.956 72.215 L 160.012 72.215 C 162.924 72.215 165.284 69.855 165.284 66.943 C 165.284 64.032 162.924 61.672 160.012 61.672 Z  M 153.937 94.888 L 141.765 87.859 C 140.132 86.876 138.095 86.851 136.439 87.794 C 134.782 88.737 133.764 90.501 133.775 92.407 C 133.786 94.313 134.826 96.064 136.494 96.987 L 148.666 104.016 C 151.18 105.407 154.346 104.528 155.783 102.04 C 157.22 99.551 156.399 96.37 153.937 94.888 Z  M 95 24.773 C 72.536 24.773 56.344 43.003 56.344 63.429 C 56.331 72.788 59.733 81.83 65.911 88.859 C 69.564 93.032 75.301 101.773 77.422 109.1 L 77.422 109.113 L 87.965 109.113 L 87.965 109.087 C 87.965 108.039 87.807 106.998 87.497 105.997 C 86.269 102.085 82.481 91.775 73.84 81.911 C 69.359 76.798 66.892 70.228 66.9 63.429 C 66.851 47.255 80.003 35.316 95 35.316 C 106.027 35.308 116.039 41.753 120.599 51.793 C 125.158 61.834 123.422 73.613 116.16 81.911 C 107.574 91.709 103.772 102.002 102.523 105.953 C 102.224 106.975 102.058 108.031 102.028 109.096 L 102.028 109.113 L 112.571 109.113 L 112.571 109.113 C 114.699 101.784 120.43 93.04 124.082 88.874 C 134.076 77.464 136.471 61.262 130.204 47.449 C 123.937 33.636 110.168 24.767 95 24.773 Z  M 95 42.344 C 83.361 42.357 73.928 51.79 73.915 63.429 C 73.915 65.37 75.488 66.943 77.429 66.943 C 79.37 66.943 80.943 65.37 80.943 63.429 C 80.953 55.67 87.241 49.382 95 49.372 C 96.941 49.372 98.514 47.799 98.514 45.858 C 98.514 43.917 96.941 42.344 95 42.344 Z  M 77.442 125.628 C 77.444 126.319 77.649 126.995 78.033 127.57 L 83.414 135.659 C 84.065 136.637 85.162 137.226 86.338 137.227 L 103.656 137.227 C 104.834 137.228 105.934 136.639 106.586 135.659 L 111.967 127.563 C 112.348 126.987 112.553 126.312 112.558 125.621 L 112.571 116.142 L 77.429 116.142 L 77.442 125.628 Z " fill-rule="evenodd" fill="rgb(255,255,255)"/></g></svg>