<?xml version="1.0" encoding="UTF-8" standalone="no"?><!-- Generator: Gravit.io --><svg xmlns="http://www.w3.org/2000/svg" xmlns:xlink="http://www.w3.org/1999/xlink" style="isolation:isolate" viewBox="0 0 669 193" width="669pt" height="193pt"><defs><clipPath id="_clipPath_qPpdnIo6lEYGtYuHkO5lb90LYI29Fmkq"><rect width="669" height="193"/></clipPath></defs><g clip-path="url(#_clipPath_qPpdnIo6lEYGtYuHkO5lb90LYI29Fmkq)"><g><path d=" M 321.375 31.166 L 321.375 31.166 L 321.375 31.166 Q 317.625 31.166 314.925 28.391 L 314.925 28.391 L 314.925 28.391 Q 312.225 25.616 312.225 21.866 L 312.225 21.866 L 312.225 21.866 Q 312.225 18.116 314.925 15.341 L 314.925 15.341 L 314.925 15.341 Q 317.625 12.566 321.375 12.566 L 321.375 12.566 L 321.375 12.566 Q 325.125 12.566 327.9 15.341 L 327.9 15.341 L 327.9 15.341 Q 330.675 18.116 330.675 21.866 L 330.675 21.866 L 330.675 21.866 Q 330.675 25.616 327.9 28.391 L 327.9 28.391 L 327.9 28.391 Q 325.125 31.166 321.375 31.166 Z  M 313.875 43.466 L 328.875 43.466 L 328.875 119.816 L 313.875 119.816 L 313.875 43.466 Z  M 419.925 119.816 L 405.075 119.816 L 405.075 112.616 L 405.075 112.616 Q 400.275 116.666 394.275 118.841 L 394.275 118.841 L 394.275 118.841 Q 388.275 121.016 381.675 121.016 L 381.675 121.016 L 381.675 121.016 Q 373.575 121.016 366.525 117.941 L 366.525 117.941 L 366.525 117.941 Q 359.475 114.866 354.3 109.616 L 354.3 109.616 L 354.3 109.616 Q 349.125 104.366 346.125 97.091 L 346.125 97.091 L 346.125 97.091 Q 343.125 89.816 343.125 81.566 L 343.125 81.566 L 343.125 81.566 Q 343.125 73.316 346.125 66.116 L 346.125 66.116 L 346.125 66.116 Q 349.125 58.916 354.3 53.666 L 354.3 53.666 L 354.3 53.666 Q 359.475 48.416 366.675 45.341 L 366.675 45.341 L 366.675 45.341 Q 373.875 42.266 381.975 42.266 L 381.975 42.266 L 381.975 42.266 Q 388.275 42.266 394.125 44.216 L 394.125 44.216 L 394.125 44.216 Q 399.975 46.166 404.925 49.766 L 404.925 49.766 L 404.925 14.816 L 419.925 11.516 L 419.925 119.816 Z  M 357.825 81.416 L 357.825 81.416 L 357.825 81.416 Q 357.825 92.666 365.325 100.316 L 365.325 100.316 L 365.325 100.316 Q 372.825 107.966 383.775 107.966 L 383.775 107.966 L 383.775 107.966 Q 390.225 107.966 395.7 105.566 L 395.7 105.566 L 395.7 105.566 Q 401.175 103.166 404.925 98.816 L 404.925 98.816 L 404.925 64.166 L 404.925 64.166 Q 401.175 59.966 395.625 57.566 L 395.625 57.566 L 395.625 57.566 Q 390.075 55.166 383.775 55.166 L 383.775 55.166 L 383.775 55.166 Q 372.825 55.166 365.325 62.666 L 365.325 62.666 L 365.325 62.666 Q 357.825 70.166 357.825 81.416 Z  M 461.775 121.166 L 461.775 121.166 L 461.775 121.166 Q 449.325 121.166 441.525 114.716 L 441.525 114.716 L 441.525 114.716 Q 433.725 108.266 433.725 97.916 L 433.725 97.916 L 433.725 97.916 Q 433.725 87.116 441.975 80.891 L 441.975 80.891 L 441.975 80.891 Q 450.225 74.666 464.625 74.666 L 464.625 74.666 L 464.625 74.666 Q 470.175 74.666 475.425 75.791 L 475.425 75.791 L 475.425 75.791 Q 480.675 76.916 485.475 78.866 L 485.475 78.866 L 485.475 70.766 L 485.475 70.766 Q 485.475 62.666 480.675 58.616 L 480.675 58.616 L 480.675 58.616 Q 475.875 54.566 466.875 54.566 L 466.875 54.566 L 466.875 54.566 Q 461.625 54.566 455.925 56.141 L 455.925 56.141 L 455.925 56.141 Q 450.225 57.716 443.175 61.016 L 443.175 61.016 L 437.625 49.766 L 437.625 49.766 Q 446.175 45.716 453.825 43.841 L 453.825 43.841 L 453.825 43.841 Q 461.475 41.966 468.975 41.966 L 468.975 41.966 L 468.975 41.966 Q 483.825 41.966 492 49.091 L 492 49.091 L 492 49.091 Q 500.175 56.216 500.175 69.266 L 500.175 69.266 L 500.175 119.816 L 485.475 119.816 L 485.475 113.216 L 485.475 113.216 Q 480.375 117.266 474.525 119.216 L 474.525 119.216 L 474.525 119.216 Q 468.675 121.166 461.775 121.166 Z  M 448.125 97.616 L 448.125 97.616 L 448.125 97.616 Q 448.125 103.166 452.85 106.616 L 452.85 106.616 L 452.85 106.616 Q 457.575 110.066 465.225 110.066 L 465.225 110.066 L 465.225 110.066 Q 471.225 110.066 476.325 108.266 L 476.325 108.266 L 476.325 108.266 Q 481.425 106.466 485.475 102.866 L 485.475 102.866 L 485.475 89.666 L 485.475 89.666 Q 481.125 87.266 476.325 86.141 L 476.325 86.141 L 476.325 86.141 Q 471.525 85.016 465.825 85.016 L 465.825 85.016 L 465.825 85.016 Q 457.725 85.016 452.925 88.466 L 452.925 88.466 L 452.925 88.466 Q 448.125 91.916 448.125 97.616 Z  M 553.875 107.966 L 553.875 107.966 L 553.875 107.966 Q 559.575 107.966 564.675 105.641 L 564.675 105.641 L 564.675 105.641 Q 569.775 103.316 574.425 98.666 L 574.425 98.666 L 583.425 108.416 L 583.425 108.416 Q 577.425 114.416 569.625 117.791 L 569.625 117.791 L 569.625 117.791 Q 561.825 121.166 553.275 121.166 L 553.275 121.166 L 553.275 121.166 Q 545.025 121.166 537.825 118.091 L 537.825 118.091 L 537.825 118.091 Q 530.625 115.016 525.375 109.766 L 525.375 109.766 L 525.375 109.766 Q 520.125 104.516 517.05 97.241 L 517.05 97.241 L 517.05 97.241 Q 513.975 89.966 513.975 81.566 L 513.975 81.566 L 513.975 81.566 Q 513.975 73.316 517.05 66.041 L 517.05 66.041 L 517.05 66.041 Q 520.125 58.766 525.375 53.441 L 525.375 53.441 L 525.375 53.441 Q 530.625 48.116 537.825 45.041 L 537.825 45.041 L 537.825 45.041 Q 545.025 41.966 553.275 41.966 L 553.275 41.966 L 553.275 41.966 Q 561.825 41.966 569.925 45.341 L 569.925 45.341 L 569.925 45.341 Q 578.025 48.716 584.025 54.716 L 584.025 54.716 L 574.575 64.916 L 574.575 64.916 Q 570.225 60.266 564.825 57.791 L 564.825 57.791 L 564.825 57.791 Q 559.425 55.316 553.575 55.316 L 553.575 55.316 L 553.575 55.316 Q 543.225 55.316 536.025 62.966 L 536.025 62.966 L 536.025 62.966 Q 528.825 70.616 528.825 81.566 L 528.825 81.566 L 528.825 81.566 Q 528.825 92.816 536.1 100.391 L 536.1 100.391 L 536.1 100.391 Q 543.375 107.966 553.875 107.966 Z  M 606.975 100.916 L 606.975 100.916 L 606.975 56.066 L 590.775 56.066 L 590.775 43.466 L 606.975 43.466 L 606.975 23.966 L 621.825 20.366 L 621.825 43.466 L 644.325 43.466 L 644.325 56.066 L 621.825 56.066 L 621.825 97.466 L 621.825 97.466 Q 621.825 103.316 624.45 105.716 L 624.45 105.716 L 624.45 105.716 Q 627.075 108.116 633.075 108.116 L 633.075 108.116 L 633.075 108.116 Q 636.225 108.116 638.7 107.741 L 638.7 107.741 L 638.7 107.741 Q 641.175 107.366 644.025 106.316 L 644.025 106.316 L 644.025 118.916 L 644.025 118.916 Q 641.025 119.966 637.05 120.566 L 637.05 120.566 L 637.05 120.566 Q 633.075 121.166 629.775 121.166 L 629.775 121.166 L 629.775 121.166 Q 618.675 121.166 612.825 115.991 L 612.825 115.991 L 612.825 115.991 Q 606.975 110.816 606.975 100.916 Z  M 123.497 84.832 C 123.497 81.921 121.137 79.561 118.226 79.561 L 104.169 79.561 C 101.258 79.561 98.898 81.921 98.898 84.832 C 98.898 87.744 101.258 90.104 104.169 90.104 L 118.226 90.104 C 121.137 90.104 123.497 87.744 123.497 84.832 Z  M 122.417 105.746 L 110.245 112.774 C 108.577 113.697 107.537 115.449 107.526 117.355 C 107.514 119.261 108.533 121.025 110.19 121.968 C 111.846 122.911 113.883 122.886 115.516 121.903 L 127.688 114.874 C 130.15 113.392 130.971 110.211 129.534 107.722 C 128.097 105.234 124.931 104.355 122.417 105.746 L 122.417 105.746 Z  M 127.688 54.79 L 115.516 47.762 C 113.883 46.779 111.846 46.754 110.19 47.697 C 108.533 48.64 107.514 50.403 107.526 52.31 C 107.537 54.216 108.577 55.967 110.245 56.89 L 122.417 63.919 C 124.05 64.902 126.086 64.927 127.743 63.984 C 129.4 63.041 130.418 61.277 130.407 59.371 C 130.395 57.465 129.356 55.713 127.688 54.79 L 127.688 54.79 Z  M 213.316 64.626 C 214.241 64.628 215.151 64.383 215.951 63.919 L 228.123 56.89 C 230.585 55.408 231.406 52.227 229.969 49.738 C 228.532 47.25 225.367 46.371 222.852 47.762 L 210.68 54.79 C 208.615 55.984 207.608 58.415 208.226 60.719 C 208.843 63.023 210.93 64.625 213.316 64.626 Z  M 234.194 79.561 L 220.137 79.561 C 217.226 79.561 214.866 81.921 214.866 84.832 C 214.866 87.744 217.226 90.104 220.137 90.104 L 234.194 90.104 C 237.105 90.104 239.465 87.744 239.465 84.832 C 239.465 81.921 237.105 79.561 234.194 79.561 Z  M 228.119 112.777 L 215.947 105.748 C 214.314 104.765 212.277 104.74 210.621 105.683 C 208.964 106.626 207.945 108.39 207.957 110.296 C 207.968 112.202 209.008 113.953 210.676 114.876 L 222.848 121.905 C 225.362 123.296 228.528 122.417 229.965 119.929 C 231.402 117.44 230.581 114.259 228.119 112.777 Z  M 169.182 42.662 C 146.717 42.662 130.526 60.892 130.526 81.318 C 130.513 90.677 133.915 99.719 140.093 106.748 C 143.746 110.921 149.483 119.662 151.604 126.989 L 151.604 127.003 L 162.147 127.003 L 162.147 126.976 C 162.146 125.928 161.989 124.887 161.679 123.886 C 160.451 119.974 156.663 109.664 148.022 99.801 C 143.541 94.687 141.074 88.117 141.081 81.318 C 141.033 65.144 154.185 53.205 169.182 53.205 C 180.209 53.197 190.221 59.642 194.781 69.682 C 199.34 79.723 197.604 91.502 190.342 99.801 C 181.756 109.599 177.954 119.891 176.704 123.842 C 176.406 124.864 176.24 125.921 176.21 126.985 L 176.21 127.003 L 186.753 127.003 L 186.753 127.003 C 188.881 119.673 194.611 110.93 198.264 106.763 C 208.258 95.353 210.652 79.151 204.386 65.338 C 198.119 51.525 184.35 42.656 169.182 42.662 Z  M 169.182 60.233 C 157.542 60.246 148.11 69.679 148.097 81.318 C 148.097 83.259 149.67 84.832 151.611 84.832 C 153.552 84.832 155.125 83.259 155.125 81.318 C 155.135 73.559 161.422 67.271 169.182 67.261 C 171.123 67.261 172.696 65.688 172.696 63.747 C 172.696 61.806 171.123 60.233 169.182 60.233 Z  M 151.624 143.517 C 151.626 144.208 151.831 144.884 152.215 145.459 L 157.596 153.548 C 158.247 154.527 159.344 155.115 160.519 155.116 L 177.838 155.116 C 179.015 155.117 180.115 154.528 180.768 153.548 L 186.149 145.452 C 186.53 144.876 186.735 144.201 186.74 143.51 L 186.753 134.031 L 151.611 134.031 L 151.624 143.517 Z  M 109.28 95.106 Q 104.217 100.216 97.425 103.241 L 97.425 103.241 L 97.425 103.241 Q 89.175 106.916 80.175 106.916 L 80.175 106.916 L 80.175 106.916 Q 71.775 106.916 64.5 103.841 L 64.5 103.841 L 64.5 103.841 Q 57.225 100.766 51.975 95.516 L 51.975 95.516 L 51.975 95.516 Q 46.725 90.266 43.725 82.991 L 43.725 82.991 L 43.725 82.991 Q 40.725 75.716 40.725 67.316 L 40.725 67.316 L 40.725 67.316 Q 40.725 58.916 43.725 51.641 L 43.725 51.641 L 43.725 51.641 Q 46.725 44.366 51.9 39.041 L 51.9 39.041 L 51.9 39.041 Q 57.075 33.716 64.275 30.716 L 64.275 30.716 L 64.275 30.716 Q 71.475 27.716 79.725 27.716 L 79.725 27.716 L 79.725 27.716 Q 88.725 27.716 97.125 31.466 L 97.125 31.466 L 97.125 31.466 Q 105.508 35.208 111.501 42.088 C 111.52 42.086 111.54 42.083 111.559 42.081 L 122.025 31.316 L 122.025 31.316 Q 114.675 22.916 103.35 18.041 L 103.35 18.041 L 103.35 18.041 Q 92.025 13.166 79.725 13.166 L 79.725 13.166 L 79.725 13.166 Q 68.175 13.166 58.05 17.366 L 58.05 17.366 L 58.05 17.366 Q 47.925 21.566 40.575 28.841 L 40.575 28.841 L 40.575 28.841 Q 33.225 36.116 28.95 46.016 L 28.95 46.016 L 28.95 46.016 Q 24.675 55.916 24.675 67.316 L 24.675 67.316 L 24.675 67.316 Q 24.675 78.566 28.95 88.541 L 28.95 88.541 L 28.95 88.541 Q 33.225 98.516 40.575 105.791 L 40.575 105.791 L 40.575 105.791 Q 47.925 113.066 58.05 117.266 L 58.05 117.266 L 58.05 117.266 Q 68.175 121.466 79.725 121.466 L 79.725 121.466 L 79.725 121.466 Q 91.537 121.466 102.55 116.743 C 102.766 113.279 104.73 110.131 107.78 108.426 L 119.877 101.441 L 113.632 95.106 L 109.28 95.106 Z  M 234.903 113.403 Q 238.493 116.073 242.775 117.941 L 242.775 117.941 L 242.775 117.941 Q 249.825 121.016 257.925 121.016 L 257.925 121.016 L 257.925 121.016 Q 264.525 121.016 270.525 118.841 L 270.525 118.841 L 270.525 118.841 Q 276.525 116.666 281.325 112.616 L 281.325 112.616 L 281.325 119.816 L 296.175 119.816 L 296.175 119.816 L 296.175 11.516 L 281.175 14.816 L 281.175 49.766 L 281.175 49.766 Q 276.225 46.166 270.375 44.216 L 270.375 44.216 L 270.375 44.216 Q 264.525 42.266 258.225 42.266 L 258.225 42.266 L 258.225 42.266 Q 250.125 42.266 242.925 45.341 L 242.925 45.341 L 242.925 45.341 Q 238.776 47.113 235.299 49.607 C 235.55 50.502 235.68 51.43 235.68 52.366 C 235.68 55.966 233.79 59.316 230.7 61.176 C 230.68 61.186 230.65 61.206 230.62 61.216 L 222.449 65.94 Q 222.412 66.028 222.375 66.116 L 222.375 66.116 L 222.375 66.116 Q 220.684 70.175 219.946 74.568 C 220.011 74.567 220.075 74.566 220.14 74.566 L 234.19 74.566 C 234.41 74.566 234.628 74.573 234.846 74.587 L 234.846 74.587 Q 236.48 67.761 241.575 62.666 L 241.575 62.666 L 241.575 62.666 Q 249.075 55.166 260.025 55.166 L 260.025 55.166 L 260.025 55.166 Q 266.325 55.166 271.875 57.566 L 271.875 57.566 L 271.875 57.566 Q 277.425 59.966 281.175 64.166 L 281.175 64.166 L 281.175 98.816 L 281.175 98.816 Q 277.425 103.166 271.95 105.566 L 271.95 105.566 L 271.95 105.566 Q 266.475 107.966 260.025 107.966 L 260.025 107.966 L 260.025 107.966 Q 249.075 107.966 241.575 100.316 L 241.575 100.316 L 241.575 100.316 Q 238.993 97.683 237.3 94.623 C 236.304 94.94 235.256 95.106 234.19 95.106 L 221.619 95.106 Q 221.969 96.107 222.375 97.091 L 222.375 97.091 L 222.375 97.091 Q 224.687 102.697 228.29 107.101 L 230.62 108.446 C 230.65 108.466 230.67 108.476 230.7 108.496 C 232.62 109.655 234.077 111.39 234.903 113.403 Z " fill-rule="evenodd" fill="rgb(255,255,255)"/><path d=" M 442.934 161.287 L 442.934 161.287 L 442.934 161.287 Q 442.934 165.998 440.561 168.643 L 440.561 168.643 L 440.561 168.643 Q 438.188 171.289 434.005 171.289 L 434.005 171.289 L 434.005 171.289 Q 431.421 171.289 429.417 170.076 L 429.417 170.076 L 429.417 170.076 Q 427.413 168.863 426.323 166.595 L 426.323 166.595 L 426.323 166.595 Q 425.233 164.328 425.233 161.287 L 425.233 161.287 L 425.233 161.287 Q 425.233 156.576 427.589 153.948 L 427.589 153.948 L 427.589 153.948 Q 429.944 151.32 434.128 151.32 L 434.128 151.32 L 434.128 151.32 Q 438.171 151.32 440.553 154.009 L 440.553 154.009 L 440.553 154.009 Q 442.934 156.699 442.934 161.287 Z  M 428.257 161.287 L 428.257 161.287 L 428.257 161.287 Q 428.257 164.978 429.733 166.912 L 429.733 166.912 L 429.733 166.912 Q 431.21 168.845 434.075 168.845 L 434.075 168.845 L 434.075 168.845 Q 436.94 168.845 438.426 166.921 L 438.426 166.921 L 438.426 166.921 Q 439.911 164.996 439.911 161.287 L 439.911 161.287 L 439.911 161.287 Q 439.911 157.613 438.426 155.706 L 438.426 155.706 L 438.426 155.706 Q 436.94 153.798 434.04 153.798 L 434.04 153.798 L 434.04 153.798 Q 431.175 153.798 429.716 155.679 L 429.716 155.679 L 429.716 155.679 Q 428.257 157.56 428.257 161.287 Z  M 464.151 170.937 L 461.233 170.937 L 461.233 158.474 L 461.233 158.474 Q 461.233 156.119 460.161 154.959 L 460.161 154.959 L 460.161 154.959 Q 459.089 153.798 456.804 153.798 L 456.804 153.798 L 456.804 153.798 Q 453.78 153.798 452.374 155.433 L 452.374 155.433 L 452.374 155.433 Q 450.968 157.068 450.968 160.83 L 450.968 160.83 L 450.968 170.937 L 448.05 170.937 L 448.05 151.671 L 450.423 151.671 L 450.897 154.308 L 451.038 154.308 L 451.038 154.308 Q 451.934 152.884 453.552 152.102 L 453.552 152.102 L 453.552 152.102 Q 455.169 151.32 457.155 151.32 L 457.155 151.32 L 457.155 151.32 Q 460.636 151.32 462.393 152.999 L 462.393 152.999 L 462.393 152.999 Q 464.151 154.677 464.151 158.369 L 464.151 158.369 L 464.151 170.937 L 464.151 170.937 Z  M 483.645 170.937 L 483.259 168.353 L 483.1 168.353 L 483.1 168.353 Q 481.079 171.289 477.054 171.289 L 477.054 171.289 L 477.054 171.289 Q 473.274 171.289 471.174 168.705 L 471.174 168.705 L 471.174 168.705 Q 469.073 166.121 469.073 161.357 L 469.073 161.357 L 469.073 161.357 Q 469.073 156.593 471.182 153.957 L 471.182 153.957 L 471.182 153.957 Q 473.292 151.32 477.054 151.32 L 477.054 151.32 L 477.054 151.32 Q 480.973 151.32 483.065 154.168 L 483.065 154.168 L 483.294 154.168 L 483.171 152.779 L 483.1 151.425 L 483.1 143.586 L 486.018 143.586 L 486.018 170.937 L 483.645 170.937 L 483.645 170.937 Z  M 477.423 168.845 L 477.423 168.845 L 477.423 168.845 Q 480.411 168.845 481.756 167.219 L 481.756 167.219 L 481.756 167.219 Q 483.1 165.593 483.1 161.972 L 483.1 161.972 L 483.1 161.357 L 483.1 161.357 Q 483.1 157.261 481.738 155.512 L 481.738 155.512 L 481.738 155.512 Q 480.376 153.763 477.387 153.763 L 477.387 153.763 L 477.387 153.763 Q 474.821 153.763 473.459 155.758 L 473.459 155.758 L 473.459 155.758 Q 472.096 157.754 472.096 161.392 L 472.096 161.392 L 472.096 161.392 Q 472.096 165.084 473.45 166.964 L 473.45 166.964 L 473.45 166.964 Q 474.804 168.845 477.423 168.845 Z  M 500.345 171.289 L 500.345 171.289 L 500.345 171.289 Q 496.073 171.289 493.603 168.687 L 493.603 168.687 L 493.603 168.687 Q 491.134 166.086 491.134 161.463 L 491.134 161.463 L 491.134 161.463 Q 491.134 156.804 493.428 154.062 L 493.428 154.062 L 493.428 154.062 Q 495.721 151.32 499.589 151.32 L 499.589 151.32 L 499.589 151.32 Q 503.21 151.32 505.319 153.702 L 505.319 153.702 L 505.319 153.702 Q 507.429 156.084 507.429 159.986 L 507.429 159.986 L 507.429 161.832 L 494.157 161.832 L 494.157 161.832 Q 494.245 165.224 495.871 166.982 L 495.871 166.982 L 495.871 166.982 Q 497.497 168.74 500.45 168.74 L 500.45 168.74 L 500.45 168.74 Q 503.561 168.74 506.602 167.439 L 506.602 167.439 L 506.602 170.041 L 506.602 170.041 Q 505.055 170.709 503.676 170.999 L 503.676 170.999 L 503.676 170.999 Q 502.296 171.289 500.345 171.289 Z  M 499.554 153.763 L 499.554 153.763 L 499.554 153.763 Q 497.233 153.763 495.853 155.275 L 495.853 155.275 L 495.853 155.275 Q 494.473 156.787 494.227 159.459 L 494.227 159.459 L 504.3 159.459 L 504.3 159.459 Q 504.3 156.699 503.069 155.231 L 503.069 155.231 L 503.069 155.231 Q 501.839 153.763 499.554 153.763 Z  M 521.192 151.32 L 521.192 151.32 L 521.192 151.32 Q 522.475 151.32 523.495 151.531 L 523.495 151.531 L 523.091 154.238 L 523.091 154.238 Q 521.895 153.974 520.981 153.974 L 520.981 153.974 L 520.981 153.974 Q 518.643 153.974 516.982 155.873 L 516.982 155.873 L 516.982 155.873 Q 515.321 157.771 515.321 160.601 L 515.321 160.601 L 515.321 170.937 L 512.403 170.937 L 512.403 151.671 L 514.811 151.671 L 515.145 155.24 L 515.286 155.24 L 515.286 155.24 Q 516.358 153.359 517.87 152.339 L 517.87 152.339 L 517.87 152.339 Q 519.382 151.32 521.192 151.32 Z  M 543.2 170.937 L 540.282 170.937 L 540.282 158.474 L 540.282 158.474 Q 540.282 156.119 539.21 154.959 L 539.21 154.959 L 539.21 154.959 Q 538.137 153.798 535.852 153.798 L 535.852 153.798 L 535.852 153.798 Q 532.829 153.798 531.423 155.433 L 531.423 155.433 L 531.423 155.433 Q 530.016 157.068 530.016 160.83 L 530.016 160.83 L 530.016 170.937 L 527.098 170.937 L 527.098 151.671 L 529.471 151.671 L 529.946 154.308 L 530.087 154.308 L 530.087 154.308 Q 530.983 152.884 532.6 152.102 L 532.6 152.102 L 532.6 152.102 Q 534.218 151.32 536.204 151.32 L 536.204 151.32 L 536.204 151.32 Q 539.684 151.32 541.442 152.999 L 541.442 152.999 L 541.442 152.999 Q 543.2 154.677 543.2 158.369 L 543.2 158.369 L 543.2 170.937 L 543.2 170.937 Z  M 557.333 171.289 L 557.333 171.289 L 557.333 171.289 Q 553.061 171.289 550.592 168.687 L 550.592 168.687 L 550.592 168.687 Q 548.122 166.086 548.122 161.463 L 548.122 161.463 L 548.122 161.463 Q 548.122 156.804 550.416 154.062 L 550.416 154.062 L 550.416 154.062 Q 552.71 151.32 556.577 151.32 L 556.577 151.32 L 556.577 151.32 Q 560.198 151.32 562.307 153.702 L 562.307 153.702 L 562.307 153.702 Q 564.417 156.084 564.417 159.986 L 564.417 159.986 L 564.417 161.832 L 551.145 161.832 L 551.145 161.832 Q 551.233 165.224 552.859 166.982 L 552.859 166.982 L 552.859 166.982 Q 554.485 168.74 557.438 168.74 L 557.438 168.74 L 557.438 168.74 Q 560.55 168.74 563.591 167.439 L 563.591 167.439 L 563.591 170.041 L 563.591 170.041 Q 562.044 170.709 560.664 170.999 L 560.664 170.999 L 560.664 170.999 Q 559.284 171.289 557.333 171.289 Z  M 556.542 153.763 L 556.542 153.763 L 556.542 153.763 Q 554.221 153.763 552.842 155.275 L 552.842 155.275 L 552.842 155.275 Q 551.462 156.787 551.216 159.459 L 551.216 159.459 L 561.288 159.459 L 561.288 159.459 Q 561.288 156.699 560.057 155.231 L 560.057 155.231 L 560.057 155.231 Q 558.827 153.763 556.542 153.763 Z  M 596.866 170.937 L 593.948 170.937 L 593.948 158.404 L 593.948 158.404 Q 593.948 156.101 592.964 154.95 L 592.964 154.95 L 592.964 154.95 Q 591.979 153.798 589.905 153.798 L 589.905 153.798 L 589.905 153.798 Q 587.18 153.798 585.88 155.363 L 585.88 155.363 L 585.88 155.363 Q 584.579 156.927 584.579 160.179 L 584.579 160.179 L 584.579 170.937 L 581.661 170.937 L 581.661 158.404 L 581.661 158.404 Q 581.661 156.101 580.677 154.95 L 580.677 154.95 L 580.677 154.95 Q 579.692 153.798 577.6 153.798 L 577.6 153.798 L 577.6 153.798 Q 574.858 153.798 573.584 155.442 L 573.584 155.442 L 573.584 155.442 Q 572.309 157.086 572.309 160.83 L 572.309 160.83 L 572.309 170.937 L 569.391 170.937 L 569.391 151.671 L 571.764 151.671 L 572.239 154.308 L 572.38 154.308 L 572.38 154.308 Q 573.206 152.902 574.709 152.111 L 574.709 152.111 L 574.709 152.111 Q 576.212 151.32 578.075 151.32 L 578.075 151.32 L 578.075 151.32 Q 582.593 151.32 583.981 154.589 L 583.981 154.589 L 584.122 154.589 L 584.122 154.589 Q 584.983 153.078 586.618 152.199 L 586.618 152.199 L 586.618 152.199 Q 588.253 151.32 590.345 151.32 L 590.345 151.32 L 590.345 151.32 Q 593.614 151.32 595.24 152.999 L 595.24 152.999 L 595.24 152.999 Q 596.866 154.677 596.866 158.369 L 596.866 158.369 L 596.866 170.937 L 596.866 170.937 Z  M 611.016 171.289 L 611.016 171.289 L 611.016 171.289 Q 606.745 171.289 604.275 168.687 L 604.275 168.687 L 604.275 168.687 Q 601.805 166.086 601.805 161.463 L 601.805 161.463 L 601.805 161.463 Q 601.805 156.804 604.099 154.062 L 604.099 154.062 L 604.099 154.062 Q 606.393 151.32 610.261 151.32 L 610.261 151.32 L 610.261 151.32 Q 613.882 151.32 615.991 153.702 L 615.991 153.702 L 615.991 153.702 Q 618.1 156.084 618.1 159.986 L 618.1 159.986 L 618.1 161.832 L 604.829 161.832 L 604.829 161.832 Q 604.917 165.224 606.543 166.982 L 606.543 166.982 L 606.543 166.982 Q 608.169 168.74 611.122 168.74 L 611.122 168.74 L 611.122 168.74 Q 614.233 168.74 617.274 167.439 L 617.274 167.439 L 617.274 170.041 L 617.274 170.041 Q 615.727 170.709 614.347 170.999 L 614.347 170.999 L 614.347 170.999 Q 612.968 171.289 611.016 171.289 Z  M 610.225 153.763 L 610.225 153.763 L 610.225 153.763 Q 607.905 153.763 606.525 155.275 L 606.525 155.275 L 606.525 155.275 Q 605.145 156.787 604.899 159.459 L 604.899 159.459 L 614.971 159.459 L 614.971 159.459 Q 614.971 156.699 613.741 155.231 L 613.741 155.231 L 613.741 155.231 Q 612.511 153.763 610.225 153.763 Z  M 639.177 170.937 L 636.259 170.937 L 636.259 158.474 L 636.259 158.474 Q 636.259 156.119 635.186 154.959 L 635.186 154.959 L 635.186 154.959 Q 634.114 153.798 631.829 153.798 L 631.829 153.798 L 631.829 153.798 Q 628.805 153.798 627.399 155.433 L 627.399 155.433 L 627.399 155.433 Q 625.993 157.068 625.993 160.83 L 625.993 160.83 L 625.993 170.937 L 623.075 170.937 L 623.075 151.671 L 625.448 151.671 L 625.923 154.308 L 626.063 154.308 L 626.063 154.308 Q 626.96 152.884 628.577 152.102 L 628.577 152.102 L 628.577 152.102 Q 630.194 151.32 632.18 151.32 L 632.18 151.32 L 632.18 151.32 Q 635.661 151.32 637.419 152.999 L 637.419 152.999 L 637.419 152.999 Q 639.177 154.677 639.177 158.369 L 639.177 158.369 L 639.177 170.937 L 639.177 170.937 Z  M 222.153 152.726 L 222.153 152.726 L 222.153 152.726 Q 222.153 156.629 219.49 158.729 L 219.49 158.729 L 219.49 158.729 Q 216.827 160.83 211.87 160.83 L 211.87 160.83 L 208.846 160.83 L 208.846 170.937 L 205.858 170.937 L 205.858 145.238 L 212.52 145.238 L 212.52 145.238 Q 222.153 145.238 222.153 152.726 Z  M 208.846 147.822 L 208.846 158.263 L 211.536 158.263 L 211.536 158.263 Q 215.509 158.263 217.284 156.98 L 217.284 156.98 L 217.284 156.98 Q 219.059 155.697 219.059 152.867 L 219.059 152.867 L 219.059 152.867 Q 219.059 150.318 217.389 149.07 L 217.389 149.07 L 217.389 149.07 Q 215.72 147.822 212.186 147.822 L 212.186 147.822 L 208.846 147.822 L 208.846 147.822 Z  M 235.231 171.289 L 235.231 171.289 L 235.231 171.289 Q 230.96 171.289 228.49 168.687 L 228.49 168.687 L 228.49 168.687 Q 226.02 166.086 226.02 161.463 L 226.02 161.463 L 226.02 161.463 Q 226.02 156.804 228.314 154.062 L 228.314 154.062 L 228.314 154.062 Q 230.608 151.32 234.475 151.32 L 234.475 151.32 L 234.475 151.32 Q 238.096 151.32 240.206 153.702 L 240.206 153.702 L 240.206 153.702 Q 242.315 156.084 242.315 159.986 L 242.315 159.986 L 242.315 161.832 L 229.044 161.832 L 229.044 161.832 Q 229.132 165.224 230.758 166.982 L 230.758 166.982 L 230.758 166.982 Q 232.384 168.74 235.337 168.74 L 235.337 168.74 L 235.337 168.74 Q 238.448 168.74 241.489 167.439 L 241.489 167.439 L 241.489 170.041 L 241.489 170.041 Q 239.942 170.709 238.562 170.999 L 238.562 170.999 L 238.562 170.999 Q 237.182 171.289 235.231 171.289 Z  M 234.44 153.763 L 234.44 153.763 L 234.44 153.763 Q 232.12 153.763 230.74 155.275 L 230.74 155.275 L 230.74 155.275 Q 229.36 156.787 229.114 159.459 L 229.114 159.459 L 239.186 159.459 L 239.186 159.459 Q 239.186 156.699 237.956 155.231 L 237.956 155.231 L 237.956 155.231 Q 236.725 153.763 234.44 153.763 Z  M 255.429 171.289 L 255.429 171.289 L 255.429 171.289 Q 251.157 171.289 248.687 168.687 L 248.687 168.687 L 248.687 168.687 Q 246.218 166.086 246.218 161.463 L 246.218 161.463 L 246.218 161.463 Q 246.218 156.804 248.512 154.062 L 248.512 154.062 L 248.512 154.062 Q 250.805 151.32 254.673 151.32 L 254.673 151.32 L 254.673 151.32 Q 258.294 151.32 260.403 153.702 L 260.403 153.702 L 260.403 153.702 Q 262.512 156.084 262.512 159.986 L 262.512 159.986 L 262.512 161.832 L 249.241 161.832 L 249.241 161.832 Q 249.329 165.224 250.955 166.982 L 250.955 166.982 L 250.955 166.982 Q 252.581 168.74 255.534 168.74 L 255.534 168.74 L 255.534 168.74 Q 258.645 168.74 261.686 167.439 L 261.686 167.439 L 261.686 170.041 L 261.686 170.041 Q 260.139 170.709 258.76 170.999 L 258.76 170.999 L 258.76 170.999 Q 257.38 171.289 255.429 171.289 Z  M 254.637 153.763 L 254.637 153.763 L 254.637 153.763 Q 252.317 153.763 250.937 155.275 L 250.937 155.275 L 250.937 155.275 Q 249.557 156.787 249.311 159.459 L 249.311 159.459 L 259.384 159.459 L 259.384 159.459 Q 259.384 156.699 258.153 155.231 L 258.153 155.231 L 258.153 155.231 Q 256.923 153.763 254.637 153.763 Z  M 276.276 151.32 L 276.276 151.32 L 276.276 151.32 Q 277.559 151.32 278.579 151.531 L 278.579 151.531 L 278.175 154.238 L 278.175 154.238 Q 276.979 153.974 276.065 153.974 L 276.065 153.974 L 276.065 153.974 Q 273.727 153.974 272.066 155.873 L 272.066 155.873 L 272.066 155.873 Q 270.405 157.771 270.405 160.601 L 270.405 160.601 L 270.405 170.937 L 267.487 170.937 L 267.487 151.671 L 269.895 151.671 L 270.229 155.24 L 270.37 155.24 L 270.37 155.24 Q 271.442 153.359 272.954 152.339 L 272.954 152.339 L 272.954 152.339 Q 274.466 151.32 276.276 151.32 Z  M 289.196 162.623 L 280.565 162.623 L 280.565 159.951 L 289.196 159.951 L 289.196 162.623 L 289.196 162.623 Z  M 299.989 168.88 L 299.989 168.88 L 299.989 168.88 Q 300.762 168.88 301.483 168.766 L 301.483 168.766 L 301.483 168.766 Q 302.204 168.652 302.626 168.529 L 302.626 168.529 L 302.626 170.761 L 302.626 170.761 Q 302.151 170.99 301.228 171.139 L 301.228 171.139 L 301.228 171.139 Q 300.305 171.289 299.567 171.289 L 299.567 171.289 L 299.567 171.289 Q 293.977 171.289 293.977 165.4 L 293.977 165.4 L 293.977 153.939 L 291.218 153.939 L 291.218 152.533 L 293.977 151.32 L 295.208 147.207 L 296.895 147.207 L 296.895 151.671 L 302.485 151.671 L 302.485 153.939 L 296.895 153.939 L 296.895 165.277 L 296.895 165.277 Q 296.895 167.017 297.721 167.949 L 297.721 167.949 L 297.721 167.949 Q 298.548 168.88 299.989 168.88 Z  M 323.104 161.287 L 323.104 161.287 L 323.104 161.287 Q 323.104 165.998 320.731 168.643 L 320.731 168.643 L 320.731 168.643 Q 318.358 171.289 314.175 171.289 L 314.175 171.289 L 314.175 171.289 Q 311.591 171.289 309.587 170.076 L 309.587 170.076 L 309.587 170.076 Q 307.583 168.863 306.493 166.595 L 306.493 166.595 L 306.493 166.595 Q 305.403 164.328 305.403 161.287 L 305.403 161.287 L 305.403 161.287 Q 305.403 156.576 307.759 153.948 L 307.759 153.948 L 307.759 153.948 Q 310.114 151.32 314.298 151.32 L 314.298 151.32 L 314.298 151.32 Q 318.341 151.32 320.722 154.009 L 320.722 154.009 L 320.722 154.009 Q 323.104 156.699 323.104 161.287 Z  M 308.427 161.287 L 308.427 161.287 L 308.427 161.287 Q 308.427 164.978 309.903 166.912 L 309.903 166.912 L 309.903 166.912 Q 311.38 168.845 314.245 168.845 L 314.245 168.845 L 314.245 168.845 Q 317.11 168.845 318.596 166.921 L 318.596 166.921 L 318.596 166.921 Q 320.081 164.996 320.081 161.287 L 320.081 161.287 L 320.081 161.287 Q 320.081 157.613 318.596 155.706 L 318.596 155.706 L 318.596 155.706 Q 317.11 153.798 314.21 153.798 L 314.21 153.798 L 314.21 153.798 Q 311.345 153.798 309.886 155.679 L 309.886 155.679 L 309.886 155.679 Q 308.427 157.56 308.427 161.287 Z  M 335.233 162.623 L 326.602 162.623 L 326.602 159.951 L 335.233 159.951 L 335.233 162.623 L 335.233 162.623 Z  M 348.768 171.289 L 348.768 171.289 L 348.768 171.289 Q 346.887 171.289 345.332 170.594 L 345.332 170.594 L 345.332 170.594 Q 343.776 169.9 342.721 168.459 L 342.721 168.459 L 342.511 168.459 L 342.511 168.459 Q 342.721 170.146 342.721 171.658 L 342.721 171.658 L 342.721 179.586 L 339.804 179.586 L 339.804 151.671 L 342.177 151.671 L 342.581 154.308 L 342.721 154.308 L 342.721 154.308 Q 343.846 152.726 345.341 152.023 L 345.341 152.023 L 345.341 152.023 Q 346.835 151.32 348.768 151.32 L 348.768 151.32 L 348.768 151.32 Q 352.6 151.32 354.683 153.939 L 354.683 153.939 L 354.683 153.939 Q 356.766 156.558 356.766 161.287 L 356.766 161.287 L 356.766 161.287 Q 356.766 166.033 354.648 168.661 L 354.648 168.661 L 354.648 168.661 Q 352.53 171.289 348.768 171.289 Z  M 348.346 153.798 L 348.346 153.798 L 348.346 153.798 Q 345.393 153.798 344.075 155.433 L 344.075 155.433 L 344.075 155.433 Q 342.757 157.068 342.721 160.636 L 342.721 160.636 L 342.721 161.287 L 342.721 161.287 Q 342.721 165.347 344.075 167.096 L 344.075 167.096 L 344.075 167.096 Q 345.429 168.845 348.417 168.845 L 348.417 168.845 L 348.417 168.845 Q 350.913 168.845 352.328 166.824 L 352.328 166.824 L 352.328 166.824 Q 353.743 164.802 353.743 161.252 L 353.743 161.252 L 353.743 161.252 Q 353.743 157.648 352.328 155.723 L 352.328 155.723 L 352.328 155.723 Q 350.913 153.798 348.346 153.798 Z  M 370.003 171.289 L 370.003 171.289 L 370.003 171.289 Q 365.731 171.289 363.262 168.687 L 363.262 168.687 L 363.262 168.687 Q 360.792 166.086 360.792 161.463 L 360.792 161.463 L 360.792 161.463 Q 360.792 156.804 363.086 154.062 L 363.086 154.062 L 363.086 154.062 Q 365.38 151.32 369.247 151.32 L 369.247 151.32 L 369.247 151.32 Q 372.868 151.32 374.977 153.702 L 374.977 153.702 L 374.977 153.702 Q 377.087 156.084 377.087 159.986 L 377.087 159.986 L 377.087 161.832 L 363.815 161.832 L 363.815 161.832 Q 363.903 165.224 365.529 166.982 L 365.529 166.982 L 365.529 166.982 Q 367.155 168.74 370.108 168.74 L 370.108 168.74 L 370.108 168.74 Q 373.22 168.74 376.261 167.439 L 376.261 167.439 L 376.261 170.041 L 376.261 170.041 Q 374.714 170.709 373.334 170.999 L 373.334 170.999 L 373.334 170.999 Q 371.954 171.289 370.003 171.289 Z  M 369.212 153.763 L 369.212 153.763 L 369.212 153.763 Q 366.891 153.763 365.512 155.275 L 365.512 155.275 L 365.512 155.275 Q 364.132 156.787 363.886 159.459 L 363.886 159.459 L 373.958 159.459 L 373.958 159.459 Q 373.958 156.699 372.727 155.231 L 372.727 155.231 L 372.727 155.231 Q 371.497 153.763 369.212 153.763 Z  M 390.2 171.289 L 390.2 171.289 L 390.2 171.289 Q 385.929 171.289 383.459 168.687 L 383.459 168.687 L 383.459 168.687 Q 380.989 166.086 380.989 161.463 L 380.989 161.463 L 380.989 161.463 Q 380.989 156.804 383.283 154.062 L 383.283 154.062 L 383.283 154.062 Q 385.577 151.32 389.444 151.32 L 389.444 151.32 L 389.444 151.32 Q 393.065 151.32 395.175 153.702 L 395.175 153.702 L 395.175 153.702 Q 397.284 156.084 397.284 159.986 L 397.284 159.986 L 397.284 161.832 L 384.012 161.832 L 384.012 161.832 Q 384.1 165.224 385.726 166.982 L 385.726 166.982 L 385.726 166.982 Q 387.352 168.74 390.305 168.74 L 390.305 168.74 L 390.305 168.74 Q 393.417 168.74 396.458 167.439 L 396.458 167.439 L 396.458 170.041 L 396.458 170.041 Q 394.911 170.709 393.531 170.999 L 393.531 170.999 L 393.531 170.999 Q 392.151 171.289 390.2 171.289 Z  M 389.409 153.763 L 389.409 153.763 L 389.409 153.763 Q 387.089 153.763 385.709 155.275 L 385.709 155.275 L 385.709 155.275 Q 384.329 156.787 384.083 159.459 L 384.083 159.459 L 394.155 159.459 L 394.155 159.459 Q 394.155 156.699 392.925 155.231 L 392.925 155.231 L 392.925 155.231 Q 391.694 153.763 389.409 153.763 Z  M 411.048 151.32 L 411.048 151.32 L 411.048 151.32 Q 412.331 151.32 413.35 151.531 L 413.35 151.531 L 412.946 154.238 L 412.946 154.238 Q 411.751 153.974 410.837 153.974 L 410.837 153.974 L 410.837 153.974 Q 408.499 153.974 406.838 155.873 L 406.838 155.873 L 406.838 155.873 Q 405.177 157.771 405.177 160.601 L 405.177 160.601 L 405.177 170.937 L 402.259 170.937 L 402.259 151.671 L 404.667 151.671 L 405.001 155.24 L 405.141 155.24 L 405.141 155.24 Q 406.214 153.359 407.725 152.339 L 407.725 152.339 L 407.725 152.339 Q 409.237 151.32 411.048 151.32 Z " fill="rgb(255,255,255)"/></g></g></svg>