<?xml version="1.0" encoding="UTF-8" standalone="no"?><!-- Generator: Gravit.io --><svg xmlns="http://www.w3.org/2000/svg" xmlns:xlink="http://www.w3.org/1999/xlink" style="isolation:isolate" viewBox="0 0 669 193" width="669pt" height="193pt"><defs><clipPath id="_clipPath_2z52nsE6sBnYfIokGibn7GPdwtf3XM2k"><rect width="669" height="193"/></clipPath></defs><g clip-path="url(#_clipPath_2z52nsE6sBnYfIokGibn7GPdwtf3XM2k)"><path d=" M 321.375 44.35 L 321.375 44.35 L 321.375 44.35 Q 317.625 44.35 314.925 41.575 L 314.925 41.575 L 314.925 41.575 Q 312.225 38.8 312.225 35.05 L 312.225 35.05 L 312.225 35.05 Q 312.225 31.3 314.925 28.525 L 314.925 28.525 L 314.925 28.525 Q 317.625 25.75 321.375 25.75 L 321.375 25.75 L 321.375 25.75 Q 325.125 25.75 327.9 28.525 L 327.9 28.525 L 327.9 28.525 Q 330.675 31.3 330.675 35.05 L 330.675 35.05 L 330.675 35.05 Q 330.675 38.8 327.9 41.575 L 327.9 41.575 L 327.9 41.575 Q 325.125 44.35 321.375 44.35 Z  M 313.875 56.65 L 328.875 56.65 L 328.875 133 L 313.875 133 L 313.875 56.65 Z  M 419.925 133 L 405.075 133 L 405.075 125.8 L 405.075 125.8 Q 400.275 129.85 394.275 132.025 L 394.275 132.025 L 394.275 132.025 Q 388.275 134.2 381.675 134.2 L 381.675 134.2 L 381.675 134.2 Q 373.575 134.2 366.525 131.125 L 366.525 131.125 L 366.525 131.125 Q 359.475 128.05 354.3 122.8 L 354.3 122.8 L 354.3 122.8 Q 349.125 117.55 346.125 110.275 L 346.125 110.275 L 346.125 110.275 Q 343.125 103 343.125 94.75 L 343.125 94.75 L 343.125 94.75 Q 343.125 86.5 346.125 79.3 L 346.125 79.3 L 346.125 79.3 Q 349.125 72.1 354.3 66.85 L 354.3 66.85 L 354.3 66.85 Q 359.475 61.6 366.675 58.525 L 366.675 58.525 L 366.675 58.525 Q 373.875 55.45 381.975 55.45 L 381.975 55.45 L 381.975 55.45 Q 388.275 55.45 394.125 57.4 L 394.125 57.4 L 394.125 57.4 Q 399.975 59.35 404.925 62.95 L 404.925 62.95 L 404.925 28 L 419.925 24.7 L 419.925 133 Z  M 357.825 94.6 L 357.825 94.6 L 357.825 94.6 Q 357.825 105.85 365.325 113.5 L 365.325 113.5 L 365.325 113.5 Q 372.825 121.15 383.775 121.15 L 383.775 121.15 L 383.775 121.15 Q 390.225 121.15 395.7 118.75 L 395.7 118.75 L 395.7 118.75 Q 401.175 116.35 404.925 112 L 404.925 112 L 404.925 77.35 L 404.925 77.35 Q 401.175 73.15 395.625 70.75 L 395.625 70.75 L 395.625 70.75 Q 390.075 68.35 383.775 68.35 L 383.775 68.35 L 383.775 68.35 Q 372.825 68.35 365.325 75.85 L 365.325 75.85 L 365.325 75.85 Q 357.825 83.35 357.825 94.6 Z  M 461.775 134.35 L 461.775 134.35 L 461.775 134.35 Q 449.325 134.35 441.525 127.9 L 441.525 127.9 L 441.525 127.9 Q 433.725 121.45 433.725 111.1 L 433.725 111.1 L 433.725 111.1 Q 433.725 100.3 441.975 94.075 L 441.975 94.075 L 441.975 94.075 Q 450.225 87.85 464.625 87.85 L 464.625 87.85 L 464.625 87.85 Q 470.175 87.85 475.425 88.975 L 475.425 88.975 L 475.425 88.975 Q 480.675 90.1 485.475 92.05 L 485.475 92.05 L 485.475 83.95 L 485.475 83.95 Q 485.475 75.85 480.675 71.8 L 480.675 71.8 L 480.675 71.8 Q 475.875 67.75 466.875 67.75 L 466.875 67.75 L 466.875 67.75 Q 461.625 67.75 455.925 69.325 L 455.925 69.325 L 455.925 69.325 Q 450.225 70.9 443.175 74.2 L 443.175 74.2 L 437.625 62.95 L 437.625 62.95 Q 446.175 58.9 453.825 57.025 L 453.825 57.025 L 453.825 57.025 Q 461.475 55.15 468.975 55.15 L 468.975 55.15 L 468.975 55.15 Q 483.825 55.15 492 62.275 L 492 62.275 L 492 62.275 Q 500.175 69.4 500.175 82.45 L 500.175 82.45 L 500.175 133 L 485.475 133 L 485.475 126.4 L 485.475 126.4 Q 480.375 130.45 474.525 132.4 L 474.525 132.4 L 474.525 132.4 Q 468.675 134.35 461.775 134.35 Z  M 448.125 110.8 L 448.125 110.8 L 448.125 110.8 Q 448.125 116.35 452.85 119.8 L 452.85 119.8 L 452.85 119.8 Q 457.575 123.25 465.225 123.25 L 465.225 123.25 L 465.225 123.25 Q 471.225 123.25 476.325 121.45 L 476.325 121.45 L 476.325 121.45 Q 481.425 119.65 485.475 116.05 L 485.475 116.05 L 485.475 102.85 L 485.475 102.85 Q 481.125 100.45 476.325 99.325 L 476.325 99.325 L 476.325 99.325 Q 471.525 98.2 465.825 98.2 L 465.825 98.2 L 465.825 98.2 Q 457.725 98.2 452.925 101.65 L 452.925 101.65 L 452.925 101.65 Q 448.125 105.1 448.125 110.8 Z  M 553.875 121.15 L 553.875 121.15 L 553.875 121.15 Q 559.575 121.15 564.675 118.825 L 564.675 118.825 L 564.675 118.825 Q 569.775 116.5 574.425 111.85 L 574.425 111.85 L 583.425 121.6 L 583.425 121.6 Q 577.425 127.6 569.625 130.975 L 569.625 130.975 L 569.625 130.975 Q 561.825 134.35 553.275 134.35 L 553.275 134.35 L 553.275 134.35 Q 545.025 134.35 537.825 131.275 L 537.825 131.275 L 537.825 131.275 Q 530.625 128.2 525.375 122.95 L 525.375 122.95 L 525.375 122.95 Q 520.125 117.7 517.05 110.425 L 517.05 110.425 L 517.05 110.425 Q 513.975 103.15 513.975 94.75 L 513.975 94.75 L 513.975 94.75 Q 513.975 86.5 517.05 79.225 L 517.05 79.225 L 517.05 79.225 Q 520.125 71.95 525.375 66.625 L 525.375 66.625 L 525.375 66.625 Q 530.625 61.3 537.825 58.225 L 537.825 58.225 L 537.825 58.225 Q 545.025 55.15 553.275 55.15 L 553.275 55.15 L 553.275 55.15 Q 561.825 55.15 569.925 58.525 L 569.925 58.525 L 569.925 58.525 Q 578.025 61.9 584.025 67.9 L 584.025 67.9 L 574.575 78.1 L 574.575 78.1 Q 570.225 73.45 564.825 70.975 L 564.825 70.975 L 564.825 70.975 Q 559.425 68.5 553.575 68.5 L 553.575 68.5 L 553.575 68.5 Q 543.225 68.5 536.025 76.15 L 536.025 76.15 L 536.025 76.15 Q 528.825 83.8 528.825 94.75 L 528.825 94.75 L 528.825 94.75 Q 528.825 106 536.1 113.575 L 536.1 113.575 L 536.1 113.575 Q 543.375 121.15 553.875 121.15 Z  M 606.975 114.1 L 606.975 114.1 L 606.975 69.25 L 590.775 69.25 L 590.775 56.65 L 606.975 56.65 L 606.975 37.15 L 621.825 33.55 L 621.825 56.65 L 644.325 56.65 L 644.325 69.25 L 621.825 69.25 L 621.825 110.65 L 621.825 110.65 Q 621.825 116.5 624.45 118.9 L 624.45 118.9 L 624.45 118.9 Q 627.075 121.3 633.075 121.3 L 633.075 121.3 L 633.075 121.3 Q 636.225 121.3 638.7 120.925 L 638.7 120.925 L 638.7 120.925 Q 641.175 120.55 644.025 119.5 L 644.025 119.5 L 644.025 132.1 L 644.025 132.1 Q 641.025 133.15 637.05 133.75 L 637.05 133.75 L 637.05 133.75 Q 633.075 134.35 629.775 134.35 L 629.775 134.35 L 629.775 134.35 Q 618.675 134.35 612.825 129.175 L 612.825 129.175 L 612.825 129.175 Q 606.975 124 606.975 114.1 Z  M 123.497 98.016 C 123.497 95.105 121.137 92.745 118.226 92.745 L 104.169 92.745 C 101.258 92.745 98.898 95.105 98.898 98.016 C 98.898 100.928 101.258 103.288 104.169 103.288 L 118.226 103.288 C 121.137 103.288 123.497 100.928 123.497 98.016 Z  M 122.417 118.93 L 110.245 125.958 C 108.577 126.881 107.537 128.633 107.526 130.539 C 107.514 132.445 108.533 134.209 110.19 135.152 C 111.846 136.095 113.883 136.07 115.516 135.087 L 127.688 128.058 C 130.15 126.576 130.971 123.395 129.534 120.906 C 128.097 118.418 124.931 117.539 122.417 118.93 L 122.417 118.93 Z  M 127.688 67.974 L 115.516 60.946 C 113.883 59.963 111.846 59.938 110.19 60.881 C 108.533 61.824 107.514 63.587 107.526 65.494 C 107.537 67.4 108.577 69.151 110.245 70.074 L 122.417 77.103 C 124.05 78.086 126.086 78.111 127.743 77.168 C 129.4 76.225 130.418 74.461 130.407 72.555 C 130.395 70.649 129.356 68.897 127.688 67.974 L 127.688 67.974 Z  M 213.316 77.81 C 214.241 77.812 215.151 77.567 215.951 77.103 L 228.123 70.074 C 230.585 68.592 231.406 65.411 229.969 62.922 C 228.532 60.434 225.367 59.555 222.852 60.946 L 210.68 67.974 C 208.615 69.168 207.608 71.599 208.226 73.903 C 208.843 76.207 210.93 77.809 213.316 77.81 Z  M 234.194 92.745 L 220.137 92.745 C 217.226 92.745 214.866 95.105 214.866 98.016 C 214.866 100.928 217.226 103.288 220.137 103.288 L 234.194 103.288 C 237.105 103.288 239.465 100.928 239.465 98.016 C 239.465 95.105 237.105 92.745 234.194 92.745 Z  M 228.119 125.961 L 215.947 118.932 C 214.314 117.949 212.277 117.924 210.621 118.867 C 208.964 119.81 207.945 121.574 207.957 123.48 C 207.968 125.386 209.008 127.137 210.676 128.06 L 222.848 135.089 C 225.362 136.48 228.528 135.601 229.965 133.113 C 231.402 130.624 230.581 127.443 228.119 125.961 Z  M 169.182 55.846 C 146.717 55.846 130.526 74.076 130.526 94.502 C 130.513 103.861 133.915 112.903 140.093 119.932 C 143.746 124.105 149.483 132.846 151.604 140.173 L 151.604 140.187 L 162.147 140.187 L 162.147 140.16 C 162.146 139.112 161.989 138.071 161.679 137.07 C 160.451 133.158 156.663 122.848 148.022 112.985 C 143.541 107.871 141.074 101.301 141.081 94.502 C 141.033 78.328 154.185 66.389 169.182 66.389 C 180.209 66.381 190.221 72.826 194.781 82.866 C 199.34 92.907 197.604 104.686 190.342 112.985 C 181.756 122.783 177.954 133.075 176.704 137.026 C 176.406 138.048 176.24 139.104 176.21 140.169 L 176.21 140.187 L 186.753 140.187 L 186.753 140.187 C 188.881 132.857 194.611 124.114 198.264 119.947 C 208.258 108.537 210.652 92.335 204.386 78.522 C 198.119 64.709 184.35 55.84 169.182 55.846 Z  M 169.182 73.417 C 157.542 73.43 148.11 82.863 148.097 94.502 C 148.097 96.443 149.67 98.016 151.611 98.016 C 153.552 98.016 155.125 96.443 155.125 94.502 C 155.135 86.743 161.422 80.455 169.182 80.445 C 171.123 80.445 172.696 78.872 172.696 76.931 C 172.696 74.99 171.123 73.417 169.182 73.417 Z  M 151.624 156.701 C 151.626 157.392 151.831 158.068 152.215 158.643 L 157.596 166.732 C 158.247 167.711 159.344 168.299 160.519 168.3 L 177.838 168.3 C 179.015 168.301 180.115 167.712 180.768 166.732 L 186.149 158.636 C 186.53 158.06 186.735 157.385 186.74 156.694 L 186.753 147.215 L 151.611 147.215 L 151.624 156.701 Z  M 109.28 108.29 Q 104.217 113.4 97.425 116.425 L 97.425 116.425 L 97.425 116.425 Q 89.175 120.1 80.175 120.1 L 80.175 120.1 L 80.175 120.1 Q 71.775 120.1 64.5 117.025 L 64.5 117.025 L 64.5 117.025 Q 57.225 113.95 51.975 108.7 L 51.975 108.7 L 51.975 108.7 Q 46.725 103.45 43.725 96.175 L 43.725 96.175 L 43.725 96.175 Q 40.725 88.9 40.725 80.5 L 40.725 80.5 L 40.725 80.5 Q 40.725 72.1 43.725 64.825 L 43.725 64.825 L 43.725 64.825 Q 46.725 57.55 51.9 52.225 L 51.9 52.225 L 51.9 52.225 Q 57.075 46.9 64.275 43.9 L 64.275 43.9 L 64.275 43.9 Q 71.475 40.9 79.725 40.9 L 79.725 40.9 L 79.725 40.9 Q 88.725 40.9 97.125 44.65 L 97.125 44.65 L 97.125 44.65 Q 105.508 48.392 111.501 55.272 C 111.52 55.27 111.54 55.267 111.559 55.265 L 122.025 44.5 L 122.025 44.5 Q 114.675 36.1 103.35 31.225 L 103.35 31.225 L 103.35 31.225 Q 92.025 26.35 79.725 26.35 L 79.725 26.35 L 79.725 26.35 Q 68.175 26.35 58.05 30.55 L 58.05 30.55 L 58.05 30.55 Q 47.925 34.75 40.575 42.025 L 40.575 42.025 L 40.575 42.025 Q 33.225 49.3 28.95 59.2 L 28.95 59.2 L 28.95 59.2 Q 24.675 69.1 24.675 80.5 L 24.675 80.5 L 24.675 80.5 Q 24.675 91.75 28.95 101.725 L 28.95 101.725 L 28.95 101.725 Q 33.225 111.7 40.575 118.975 L 40.575 118.975 L 40.575 118.975 Q 47.925 126.25 58.05 130.45 L 58.05 130.45 L 58.05 130.45 Q 68.175 134.65 79.725 134.65 L 79.725 134.65 L 79.725 134.65 Q 91.537 134.65 102.55 129.926 C 102.766 126.463 104.73 123.315 107.78 121.61 L 119.877 114.625 L 113.632 108.29 L 109.28 108.29 Z  M 234.903 126.587 Q 238.493 129.257 242.775 131.125 L 242.775 131.125 L 242.775 131.125 Q 249.825 134.2 257.925 134.2 L 257.925 134.2 L 257.925 134.2 Q 264.525 134.2 270.525 132.025 L 270.525 132.025 L 270.525 132.025 Q 276.525 129.85 281.325 125.8 L 281.325 125.8 L 281.325 133 L 296.175 133 L 296.175 133 L 296.175 24.7 L 281.175 28 L 281.175 62.95 L 281.175 62.95 Q 276.225 59.35 270.375 57.4 L 270.375 57.4 L 270.375 57.4 Q 264.525 55.45 258.225 55.45 L 258.225 55.45 L 258.225 55.45 Q 250.125 55.45 242.925 58.525 L 242.925 58.525 L 242.925 58.525 Q 238.776 60.297 235.299 62.791 C 235.55 63.686 235.68 64.614 235.68 65.55 C 235.68 69.15 233.79 72.5 230.7 74.36 C 230.68 74.37 230.65 74.39 230.62 74.4 L 222.449 79.124 Q 222.412 79.212 222.375 79.3 L 222.375 79.3 L 222.375 79.3 Q 220.684 83.359 219.946 87.752 C 220.011 87.751 220.075 87.75 220.14 87.75 L 234.19 87.75 C 234.41 87.75 234.628 87.757 234.846 87.771 L 234.846 87.771 Q 236.48 80.945 241.575 75.85 L 241.575 75.85 L 241.575 75.85 Q 249.075 68.35 260.025 68.35 L 260.025 68.35 L 260.025 68.35 Q 266.325 68.35 271.875 70.75 L 271.875 70.75 L 271.875 70.75 Q 277.425 73.15 281.175 77.35 L 281.175 77.35 L 281.175 112 L 281.175 112 Q 277.425 116.35 271.95 118.75 L 271.95 118.75 L 271.95 118.75 Q 266.475 121.15 260.025 121.15 L 260.025 121.15 L 260.025 121.15 Q 249.075 121.15 241.575 113.5 L 241.575 113.5 L 241.575 113.5 Q 238.993 110.867 237.3 107.807 C 236.304 108.124 235.256 108.29 234.19 108.29 L 221.619 108.29 Q 221.969 109.291 222.375 110.275 L 222.375 110.275 L 222.375 110.275 Q 224.687 115.881 228.29 120.285 L 230.62 121.63 C 230.65 121.65 230.67 121.66 230.7 121.68 C 232.62 122.839 234.077 124.574 234.903 126.587 Z " fill-rule="evenodd" fill="rgb(255,255,255)"/></g></svg>