<?xml version="1.0" encoding="UTF-8" standalone="no"?><!-- Generator: Gravit.io --><svg xmlns="http://www.w3.org/2000/svg" xmlns:xlink="http://www.w3.org/1999/xlink" style="isolation:isolate" viewBox="0 0 366 250" width="366pt" height="250pt"><defs><clipPath id="_clipPath_8MwiU742NaOUg5Liwlqbfes9Wewtah6S"><rect width="366" height="250"/></clipPath></defs><g clip-path="url(#_clipPath_8MwiU742NaOUg5Liwlqbfes9Wewtah6S)"><circle vector-effect="non-scaling-stroke" cx="181.22917243635504" cy="217.76136078875743" r="21.54627162566854" fill="rgb(34,39,37)"/><linearGradient id="_lgradient_0" x1="0.14644660940672627" y1="0.8535533905932737" x2="0.8535533905932738" y2="0.14644660940672627" gradientTransform="matrix(205.938,0,0,123.702,0.068,-0.156)" gradientUnits="userSpaceOnUse"><stop offset="0%" stop-opacity="1" style="stop-color:rgb(78,205,196)"/><stop offset="100%" stop-opacity="1" style="stop-color:rgb(64,188,216)"/></linearGradient><path d=" M 201.217 34.673 C 194.582 33.926 187.835 33.554 181.002 33.554 C 113.636 33.554 54.634 69.653 22.303 123.546 L 0.068 110.22 C 30.779 45.018 97.105 -0.156 173.899 -0.156 C 184.84 -0.156 195.568 0.761 206.005 2.54 L 201.217 34.673 L 201.217 34.673 Z " fill="url(#_lgradient_0)"/><linearGradient id="_lgradient_1" x1="0.8535533905932738" y1="0.8535533905932735" x2="0.14644660940672616" y2="0.14644660940672605" gradientTransform="matrix(164.716,0,0,202.718,201.217,2.54)" gradientUnits="userSpaceOnUse"><stop offset="0%" stop-opacity="1" style="stop-color:rgb(240,135,0)"/><stop offset="100%" stop-opacity="1" style="stop-color:rgb(244,159,10)"/></linearGradient><path d=" M 201.217 34.673 C 289.468 44.264 359.149 116.067 365.463 205.257 C 365.777 200.838 365.932 196.376 365.932 191.877 C 365.932 96.832 296.733 17.822 206.005 2.54 L 201.217 34.673 L 201.217 34.673 Z " fill="url(#_lgradient_1)"/><polygon points="213.244,233.939,196.801,250.156,59.095,94.08" fill="rgb(34,39,37)"/></g></svg>